<svg xmlns="http://www.w3.org/2000/svg" viewBox="0 0 800 1000" role="img" aria-labelledby="title"><title id="title">Gothic bloom press-on nail placeholder</title><rect width="800" height="1000" fill="#211f23"/><path d="M0 720c150-120 260-80 390-180 160-122 250-120 410-40v500H0Z" fill="#c8cdd2" opacity=".35"/><g transform="translate(118 100)"><rect x="10" y="190" width="92" height="570" rx="46" fill="#2f2b33" stroke="#c8cdd2" stroke-opacity=".45"/><rect x="132" y="100" width="96" height="660" rx="48" fill="#111" stroke="#c8cdd2" stroke-opacity=".45"/><rect x="262" y="46" width="100" height="714" rx="50" fill="#3a353f" stroke="#c8cdd2" stroke-opacity=".45"/><rect x="398" y="132" width="96" height="628" rx="48" fill="#111" stroke="#c8cdd2" stroke-opacity=".45"/><path d="M305 255c38-62 96-10 50 38 60-18 76 58 9 66 22 50-48 82-70 26-44 34-90-20-40-55-62-20-31-94 51-75Z" fill="#f4b8c8" opacity=".9"/></g></svg>