<svg xmlns="http://www.w3.org/2000/svg" viewBox="0 0 800 1000" role="img" aria-labelledby="title"><title id="title">Leopard press-on nail placeholder</title><rect width="800" height="1000" fill="#f7d7a4"/><g opacity=".9"><circle cx="130" cy="140" r="42" fill="#211f23"/><circle cx="590" cy="210" r="34" fill="#d79a2b"/><circle cx="680" cy="720" r="50" fill="#211f23"/><circle cx="260" cy="830" r="38" fill="#d79a2b"/></g><g transform="translate(122 120)"><rect x="0" y="180" width="90" height="560" rx="45" fill="#fffaf0"/><rect x="118" y="90" width="96" height="650" rx="48" fill="#f4b8c8"/><rect x="246" y="40" width="100" height="700" rx="50" fill="#fffaf0"/><rect x="382" y="110" width="96" height="630" rx="48" fill="#d79a2b"/><path d="M43 300c25-26 48-5 34 19-18 31-58 17-34-19Zm248-80c33-19 54 18 26 42-31 25-68-15-26-42Zm141 230c26-19 53 7 32 36-25 32-68-4-32-36Z" fill="#211f23" opacity=".82"/></g></svg>