<svg xmlns="http://www.w3.org/2000/svg" viewBox="0 0 800 1000" role="img" aria-labelledby="title"><title id="title">Vacation shell press-on nail placeholder</title><rect width="800" height="1000" fill="#fffaf0"/><path d="M0 620c130-80 210-60 330 0s240 80 470-50v430H0Z" fill="#f4b8c8" opacity=".75"/><path d="M0 760c180-90 300-35 430-5s220 10 370-70v315H0Z" fill="#d79a2b" opacity=".45"/><g transform="translate(118 105)"><rect x="10" y="205" width="92" height="555" rx="46" fill="#fff"/><rect x="132" y="105" width="96" height="655" rx="48" fill="#f4b8c8"/><rect x="262" y="55" width="100" height="705" rx="50" fill="#fff"/><rect x="398" y="136" width="96" height="624" rx="48" fill="#c8cdd2"/><path d="M310 270c70 40 70 120 0 170-72-50-72-130 0-170Z" fill="#fffaf0" stroke="#d79a2b" stroke-width="10"/></g></svg>